<svg xmlns="http://www.w3.org/2000/svg" width="181.2" height="97.248" viewBox="0 0 181.2 97.248">
  <g id="Group_5" data-name="Group 5" transform="translate(-151.874 -153.55)">
    <g id="Group_2" data-name="Group 2" transform="translate(151.874 183.839)">
      <g id="Group_1" data-name="Group 1" transform="translate(0 0)">
        <path id="Path_1" data-name="Path 1" d="M152.6,269.74a25.662,25.662,0,0,1-.723-6.237,33.5,33.5,0,0,1,.271-4.158,34.9,34.9,0,0,1,3.028-10.621,14.681,14.681,0,0,1,3.842-4.814,12.364,12.364,0,0,1,4.475-2.554,13.342,13.342,0,0,1,3.254-.543,8.992,8.992,0,0,1,2.938.5,7.978,7.978,0,0,1,4.249,3.887,12.94,12.94,0,0,1,1.243,3.819,25.134,25.134,0,0,1,.339,4.091,16.14,16.14,0,0,1-.52,4.814,3.219,3.219,0,0,1-1.831,2.056,3.928,3.928,0,0,1-1.673.5,3.654,3.654,0,0,1-1.627-.5,2.7,2.7,0,0,1-1.672-1.673,15.347,15.347,0,0,1-.407-4.339v-1.04q0-1.491-.09-2.351a2.875,2.875,0,0,0-.5-1.559,1.488,1.488,0,0,0-1.13-.384q-3.345,0-5.65,8.181a21.229,21.229,0,0,0-.61,3.774q-.159,2.057-.159,3.006a23.454,23.454,0,0,0,.362,4.113,5.355,5.355,0,0,0,2.351,3.932,2.472,2.472,0,0,0,1.04.226,3.507,3.507,0,0,0,1.672-.5,14.417,14.417,0,0,0,3.073-2.35,4.622,4.622,0,0,1,3.164-1.628,3.253,3.253,0,0,1,1.537.407,3.862,3.862,0,0,1,2.26,3.48,4.148,4.148,0,0,1-.045.587q-.5,1.9-3.209,4.2a17.006,17.006,0,0,1-5.514,3.254,11.3,11.3,0,0,1-2.893.407,8.572,8.572,0,0,1-3.3-.633,11.713,11.713,0,0,1-4.769-3.706A15.481,15.481,0,0,1,152.6,269.74Z" transform="translate(-151.874 -222.192)" fill="#00b7ff"/>
        <path id="Path_2" data-name="Path 2" d="M202.263,230.5a5.183,5.183,0,0,1-1.175-1.085,3.06,3.06,0,0,1-.543-1.356,2.29,2.29,0,0,1-.045-.452,4.974,4.974,0,0,1,1.266-3.073,5.828,5.828,0,0,1,3.209-2.305,3.616,3.616,0,0,1,.587-.045,3.893,3.893,0,0,1,1.673.407,3.226,3.226,0,0,1,1.627,1.447,4.024,4.024,0,0,1,.452,1.808,4.593,4.593,0,0,1-.949,2.621,5.647,5.647,0,0,1-2.508,2.215,6.4,6.4,0,0,1-1.74.362A3.4,3.4,0,0,1,202.263,230.5Zm-.859,35.571a11.913,11.913,0,0,1-.475-3.616q-.113-2.848-.158-8.995-.045-2.621-.045-4.519t.045-3.119a10.354,10.354,0,0,1,.5-3.39,2.341,2.341,0,0,1,1.356-1.266,5.118,5.118,0,0,1,2.17-.587,2.681,2.681,0,0,1,1.9.768,5.65,5.65,0,0,1,1.582,4.113l.181,6.644q0,.814.045,1.627.09,3.752.18,6.983t.136,4a6.752,6.752,0,0,1,.09.994,2.206,2.206,0,0,1-.045.5,2.333,2.333,0,0,1-.543,1.04,4.008,4.008,0,0,1-3.074,1.672,2.815,2.815,0,0,1-.678-.09A4.382,4.382,0,0,1,201.4,266.073Z" transform="translate(-173.245 -214.005)" fill="#00b7ff"/>
        <path id="Path_3" data-name="Path 3" d="M249.524,285.183q-2.261-.678-2.983-3.932a39.884,39.884,0,0,1-.271-5.785v-2.26q.045-2.621.045-4.43v-1.808a3.58,3.58,0,0,0-.475.678q-.43.678-1.017,1.672a33.555,33.555,0,0,1-5.966,7.706,8.457,8.457,0,0,1-5.559,2.418h-.181q-4.791,0-7.819-6.237a30.884,30.884,0,0,1-2.621-12.565V258.11a3.051,3.051,0,0,1,.248-1.2,3.683,3.683,0,0,1,.656-.836,3.54,3.54,0,0,1,2.531-1.175,4.19,4.19,0,0,1,1.717.406,3.752,3.752,0,0,1,1.921,1.9,9.767,9.767,0,0,1,.61,3.661,31.186,31.186,0,0,0,.971,6.464q.836,3.255,1.74,3.977a.4.4,0,0,0,.181.045q.858,0,2.893-2.893a108.071,108.071,0,0,0,5.785-9.808,41.263,41.263,0,0,1,4.611-7.457,4.47,4.47,0,0,1,2.192-1.537,10.358,10.358,0,0,1,1.108-.136,4.078,4.078,0,0,1,2.576,1.085,4.66,4.66,0,0,1,1.2,1.469,6.653,6.653,0,0,1,.565,2.395q.136,1.56.136,4v1.266q-.045,3.345-.226,9.04Q254,272.8,254,275.24v1.446a16.118,16.118,0,0,0,.226,3.39,8.365,8.365,0,0,1,.136,1.447,3.969,3.969,0,0,1-.949,2.712,3.478,3.478,0,0,1-2.621,1.085A6.49,6.49,0,0,1,249.524,285.183Z" transform="translate(-182.992 -226.019)" fill="#00b7ff"/>
        <path id="Path_4" data-name="Path 4" d="M314.342,272.63a4.467,4.467,0,0,1-.723-.7,7.085,7.085,0,0,1-.587-.791q-.542-1.355-1.108-8.022t-.882-15.526l-.225-6.689-1.491,3.616q-6.373,15.413-12.114,17.446a7.743,7.743,0,0,1-2.531.452,5.551,5.551,0,0,1-3.074-.9,8.152,8.152,0,0,1-3.367-4.474,18.867,18.867,0,0,1-.972-5.966,25.183,25.183,0,0,1,.18-2.938,30.38,30.38,0,0,1,3.277-10.577,14.156,14.156,0,0,1,5.943-6.237,9.345,9.345,0,0,1,2.938-.837c.874-.074,1.461-.113,1.763-.113a10.186,10.186,0,0,1,2.939.407,4.563,4.563,0,0,0,1.31.316c.241,0,.362-.075.362-.226q.632-1.943,1.582-5.537t1.831-7.187q.882-3.593,1.243-5.446a13.535,13.535,0,0,1,.384-1.763q.248-.858.43-1.311a3.047,3.047,0,0,1,1.74-1.74,6.108,6.108,0,0,1,1.56-.294,4.08,4.08,0,0,1,1.672.362,3.275,3.275,0,0,1,1.9,2.079,8.285,8.285,0,0,1,.248,2.441q.022,1.9.023,3.209,0,2.621-.045,6.78-.045,3.075-.045,6.1,0,11.118.407,21.831.5,13.6,1.356,17.13a5.747,5.747,0,0,1,.226,1.537,4.486,4.486,0,0,1-1.356,3.209,3.709,3.709,0,0,1-1.13.836,3.825,3.825,0,0,1-1.4.2A3.542,3.542,0,0,1,314.342,272.63Zm-16.135-22.554q1.039-1.807,2.124-4.181t1.763-4.2a9.23,9.23,0,0,0,.678-2.418v-.135q-.226-.814-.745-.927a4.119,4.119,0,0,0-.746-.113,3.63,3.63,0,0,0-1.446.362,7.338,7.338,0,0,0-2.577,3.3,22.387,22.387,0,0,0-1.763,5.108,21.7,21.7,0,0,0-.542,4.339,13.751,13.751,0,0,0,.09,1.627l.271,1.356.768-.949a11.8,11.8,0,0,0,.949-1.311Q297.619,251.026,298.207,250.076Z" transform="translate(-211.381 -207.59)" fill="#00b7ff"/>
        <path id="Path_5" data-name="Path 5" d="M352.991,273.815v-.949a25.741,25.741,0,0,1,.633-5.6,38.242,38.242,0,0,1,3.774-9.831,23.382,23.382,0,0,1,5.446-6.734,9.709,9.709,0,0,1,6.147-2.463h.181a7.912,7.912,0,0,1,4.7,1.446,2.763,2.763,0,0,0,.994.43,5.036,5.036,0,0,0,1.221.158,4.242,4.242,0,0,1,4.113,2.667,7.107,7.107,0,0,1,.566,1.65,23.329,23.329,0,0,1,.361,2.735q.158,1.808.384,5.153a57.944,57.944,0,0,0,.768,6.734,7.581,7.581,0,0,0,1.266,3.254,4.123,4.123,0,0,1,1.085,2.622,3.793,3.793,0,0,1-.543,1.9q-1.085,2.08-2.215,2.26a12.5,12.5,0,0,1-1.447.181,4.15,4.15,0,0,1-2.983-1.356,10.576,10.576,0,0,1-1.718-3.413,30.868,30.868,0,0,1-1.265-5.311q-.136-1.085-.294-2.124t-.248-1.491l-.136-1.085-1.9,2.938q-6.464,10.08-10.666,12.068a6.391,6.391,0,0,1-2.622.633,4.4,4.4,0,0,1-1.4-.226,5.52,5.52,0,0,1-2.938-2.283A7.826,7.826,0,0,1,352.991,273.815Zm10.8-8.091q2.531-3.706,4.181-6.373a15.773,15.773,0,0,0,1.65-2.983c0-.091-.061-.165-.182-.226a1.007,1.007,0,0,0-.452-.09,3.94,3.94,0,0,0-2.079,1.333,15.247,15.247,0,0,0-2.351,3.006,24.461,24.461,0,0,0-1.22,2.4q-.678,1.491-1.243,3.028t-.814,2.4a5.334,5.334,0,0,0-.249,1.13c0,.12.03.181.091.181a10,10,0,0,0,.814-1.085Q362.708,267.351,363.793,265.724Z" transform="translate(-240.266 -225.452)" fill="#00b7ff"/>
        <path id="Path_6" data-name="Path 6" d="M442.964,272.63a4.424,4.424,0,0,1-.723-.7,7.028,7.028,0,0,1-.588-.791q-.542-1.355-1.107-8.022t-.882-15.526l-.226-6.689-1.491,3.616q-6.373,15.413-12.113,17.446a7.752,7.752,0,0,1-2.532.452,5.551,5.551,0,0,1-3.073-.9,8.156,8.156,0,0,1-3.367-4.474,18.867,18.867,0,0,1-.972-5.966,25.188,25.188,0,0,1,.181-2.938,30.381,30.381,0,0,1,3.277-10.577,14.157,14.157,0,0,1,5.944-6.237,9.341,9.341,0,0,1,2.938-.837c.874-.074,1.461-.113,1.763-.113a10.185,10.185,0,0,1,2.938.407,4.564,4.564,0,0,0,1.311.316q.361,0,.361-.226.633-1.943,1.582-5.537t1.831-7.187q.881-3.593,1.243-5.446a13.539,13.539,0,0,1,.383-1.763q.248-.858.43-1.311a3.047,3.047,0,0,1,1.74-1.74,6.113,6.113,0,0,1,1.56-.294,4.08,4.08,0,0,1,1.672.362,3.274,3.274,0,0,1,1.9,2.079,8.3,8.3,0,0,1,.249,2.441q.022,1.9.022,3.209,0,2.621-.045,6.78-.045,3.075-.045,6.1,0,11.118.407,21.831.5,13.6,1.356,17.13a5.767,5.767,0,0,1,.226,1.537,4.488,4.488,0,0,1-1.356,3.209,3.718,3.718,0,0,1-1.13.836,3.825,3.825,0,0,1-1.4.2A3.542,3.542,0,0,1,442.964,272.63Zm-16.136-22.554q1.039-1.807,2.124-4.181t1.763-4.2a9.222,9.222,0,0,0,.677-2.418v-.135q-.226-.814-.745-.927a4.118,4.118,0,0,0-.746-.113,3.632,3.632,0,0,0-1.446.362,7.338,7.338,0,0,0-2.576,3.3,22.335,22.335,0,0,0-1.763,5.108,21.7,21.7,0,0,0-.543,4.339,13.869,13.869,0,0,0,.09,1.627l.271,1.356.768-.949a11.735,11.735,0,0,0,.949-1.311Q426.24,251.026,426.828,250.076Z" transform="translate(-267.911 -207.59)" fill="#00b7ff"/>
      </g>
    </g>
    <g id="Group_3" data-name="Group 3" transform="translate(202.851 243.139)">
      <path id="Path_7" data-name="Path 7" d="M248.889,319.436a3.117,3.117,0,0,1-.953.559,3.2,3.2,0,0,1-1.12.2,3.147,3.147,0,0,1-1.553-.4,3.062,3.062,0,0,1-1.129-1.072,2.749,2.749,0,0,1,0-2.9,3.064,3.064,0,0,1,1.129-1.073,3.158,3.158,0,0,1,1.553-.4,3.3,3.3,0,0,1,1.133.195,2.957,2.957,0,0,1,.8.435l.691,0-.11-.661a4.164,4.164,0,0,0-1.073-.6,4.138,4.138,0,0,0-3.428.252,3.931,3.931,0,0,0-1.457,1.386,3.63,3.63,0,0,0,0,3.823,4.048,4.048,0,0,0,3.447,1.9,4.1,4.1,0,0,0,1.442-.257,4.037,4.037,0,0,0,1.233-.73l.3-.261-.668-.6Z" transform="translate(-242.825 -313.422)" fill="#fff"/>
      <path id="Path_8" data-name="Path 8" d="M260.6,313.535l-3.578,7.548h1.021l.983-2.086h3.855l.994,2.086h1.013l-3.622-7.548Zm-1.152,4.564,1.488-3.167,1.51,3.167Z" transform="translate(-249.066 -313.453)" fill="#fff"/>
      <path id="Path_9" data-name="Path 9" d="M278.265,318.821l-2.883-5.287h-.914v7.549h.9v-5.635l2.665,4.881h.437l2.657-4.881.009,5.635h.9v-7.549h-.915Z" transform="translate(-256.732 -313.453)" fill="#fff"/>
      <path id="Path_10" data-name="Path 10" d="M298.908,317.108a1.789,1.789,0,0,0,.249-.234,1.9,1.9,0,0,0,.452-1.294,1.84,1.84,0,0,0-.7-1.525h0a2.87,2.87,0,0,0-1.809-.521h-3.2v7.549h3.2a3.5,3.5,0,0,0,2.076-.546,2.067,2.067,0,0,0,.238-3.068,2.066,2.066,0,0,0-.5-.36m-4.106-2.676h2.3a2.015,2.015,0,0,1,1.231.319.959.959,0,0,1,.374.828.97.97,0,0,1-.374.838,2.014,2.014,0,0,1-1.231.319h-2.3Zm3.823,5.385h0a2.661,2.661,0,0,1-1.527.367h-2.3v-2.559h2.3a2.719,2.719,0,0,1,1.53.359,1.013,1.013,0,0,1,.461.905,1.045,1.045,0,0,1-.464.928" transform="translate(-265.271 -313.453)" fill="#fff"/>
      <path id="Path_11" data-name="Path 11" d="M318.261,313.535l-3.578,7.548H315.7l.983-2.086h3.856l.994,2.086h1.013l-3.622-7.548Zm-1.152,4.564,1.488-3.167,1.51,3.167Z" transform="translate(-274.407 -313.453)" fill="#fff"/>
      <path id="Path_12" data-name="Path 12" d="M359.6,319.263a3.643,3.643,0,0,1-1.159.731,3.2,3.2,0,0,1-1.12.2,3.154,3.154,0,0,1-1.553-.4,3.06,3.06,0,0,1-1.129-1.073,2.748,2.748,0,0,1,0-2.9,3.059,3.059,0,0,1,1.129-1.073,3.148,3.148,0,0,1,1.553-.4,3.3,3.3,0,0,1,1.133.195,3.553,3.553,0,0,1,.851.478.435.435,0,0,0,.562-.035l.01-.009a.436.436,0,0,0-.04-.665,4.9,4.9,0,0,0-1.078-.594,4.135,4.135,0,0,0-3.428.252,3.928,3.928,0,0,0-1.457,1.386,3.626,3.626,0,0,0,0,3.822,4.048,4.048,0,0,0,3.447,1.9,4.1,4.1,0,0,0,1.442-.257,4.552,4.552,0,0,0,1.468-.923c-.014-.032-.512-.511-.631-.638" transform="translate(-291.391 -313.422)" fill="#fff"/>
      <path id="Path_13" data-name="Path 13" d="M374.235,313.974h0a4.144,4.144,0,0,0-3.982,0,3.938,3.938,0,0,0-1.456,1.38,3.625,3.625,0,0,0,0,3.821,3.97,3.97,0,0,0,1.455,1.391,4.11,4.11,0,0,0,3.985,0,3.972,3.972,0,0,0,1.456-1.391,3.625,3.625,0,0,0,0-3.821,3.947,3.947,0,0,0-1.456-1.38m.682,4.74a3.063,3.063,0,0,1-1.129,1.073,3.2,3.2,0,0,1-3.086,0,3.056,3.056,0,0,1-1.13-1.073,2.683,2.683,0,0,1-.414-1.451,2.644,2.644,0,0,1,.414-1.435,3.069,3.069,0,0,1,1.13-1.068,3.2,3.2,0,0,1,3.086,0,3.071,3.071,0,0,1,1.13,1.068,2.646,2.646,0,0,1,.413,1.435,2.685,2.685,0,0,1-.414,1.451" transform="translate(-297.951 -313.422)" fill="#fff"/>
      <path id="Path_14" data-name="Path 14" d="M392.853,313.535h-.2a.351.351,0,0,0-.351.351v5.6l-4.367-5.81a.353.353,0,0,0-.281-.14h-.3a.351.351,0,0,0-.351.351v6.846a.351.351,0,0,0,.351.351h.2a.351.351,0,0,0,.351-.351v-5.6l4.367,5.81a.351.351,0,0,0,.281.14h.3a.351.351,0,0,0,.351-.351v-6.846a.351.351,0,0,0-.351-.351" transform="translate(-306.189 -313.453)" fill="#fff"/>
      <path id="Path_15" data-name="Path 15" d="M407.325,313.535h-5.071a.351.351,0,0,0-.351.351v.2a.351.351,0,0,0,.351.351h2.083v6.3a.351.351,0,0,0,.351.351h.2a.351.351,0,0,0,.351-.351v-6.3h2.083a.351.351,0,0,0,.351-.351v-.2a.351.351,0,0,0-.351-.351" transform="translate(-312.741 -313.453)" fill="#fff"/>
      <path id="Path_16" data-name="Path 16" d="M428.583,316.99h-.2a.351.351,0,0,0-.351.351v2.24a3.016,3.016,0,0,1-.8.427,3.232,3.232,0,0,1-1.089.186,3.141,3.141,0,0,1-2.683-1.479,2.74,2.74,0,0,1,0-2.9,3.083,3.083,0,0,1,1.13-1.069,3.159,3.159,0,0,1,1.553-.4,3.3,3.3,0,0,1,1.133.195,2.926,2.926,0,0,1,.937.55.351.351,0,0,0,.476-.011l.132-.127a.349.349,0,0,0,.107-.264.353.353,0,0,0-.124-.257,4.164,4.164,0,0,0-1.224-.717,4.138,4.138,0,0,0-3.428.252,3.943,3.943,0,0,0-1.456,1.381,3.628,3.628,0,0,0,0,3.821,3.97,3.97,0,0,0,1.455,1.391,4.019,4.019,0,0,0,1.993.515,4.111,4.111,0,0,0,1.442-.257,4.037,4.037,0,0,0,1.233-.73.352.352,0,0,0,.121-.265v-2.488a.352.352,0,0,0-.351-.351" transform="translate(-321.639 -313.422)" fill="#fff"/>
      <path id="Path_17" data-name="Path 17" d="M445.869,315.355a3.951,3.951,0,0,0-1.456-1.38,4.144,4.144,0,0,0-3.982,0,3.942,3.942,0,0,0-1.456,1.38,3.625,3.625,0,0,0,0,3.821,3.97,3.97,0,0,0,1.455,1.391,4.11,4.11,0,0,0,3.985,0,3.972,3.972,0,0,0,1.456-1.391,3.628,3.628,0,0,0,0-3.821m-.775,3.36a3.06,3.06,0,0,1-1.13,1.073,3.2,3.2,0,0,1-3.086,0,3.055,3.055,0,0,1-1.129-1.073,2.683,2.683,0,0,1-.414-1.451,2.639,2.639,0,0,1,.414-1.435,3.071,3.071,0,0,1,1.13-1.068,3.2,3.2,0,0,1,3.086,0,3.073,3.073,0,0,1,1.131,1.068,2.647,2.647,0,0,1,.413,1.435,2.685,2.685,0,0,1-.414,1.451" transform="translate(-328.795 -313.422)" fill="#fff"/>
      <path id="Path_18" data-name="Path 18" d="M416.491,316.234h-.012a.447.447,0,0,0-.447.446v5.147a.446.446,0,0,0,.447.446h.012a.446.446,0,0,0,.446-.446V316.68a.446.446,0,0,0-.446-.446" transform="translate(-318.951 -314.639)" fill="#fff"/>
      <path id="Path_19" data-name="Path 19" d="M416.431,313.389a.528.528,0,1,0,.527.528.528.528,0,0,0-.527-.528" transform="translate(-318.894 -313.389)" fill="#fff"/>
      <path id="Path_20" data-name="Path 20" d="M310.172,316.234h-.012a.447.447,0,0,0-.446.446v5.147a.446.446,0,0,0,.446.446h.012a.446.446,0,0,0,.447-.446V316.68a.447.447,0,0,0-.447-.446" transform="translate(-272.223 -314.639)" fill="#fff"/>
      <path id="Path_21" data-name="Path 21" d="M310.112,313.389a.528.528,0,1,0,.527.528.528.528,0,0,0-.527-.528" transform="translate(-272.166 -313.389)" fill="#fff"/>
    </g>
    <text id="La" transform="translate(191.838 204.18)" fill="#fff" font-size="30" font-family="Quicksand-Light, Quicksand" font-weight="300"><tspan x="0" y="0">La</tspan></text>
    <g id="Group_4" data-name="Group 4" transform="translate(274.453 153.55)">
      <path id="Path_22" data-name="Path 22" d="M397.2,162.44a4.929,4.929,0,0,0-1.222.816c-.247.223-4.894,5.395-4.894,5.395a39.3,39.3,0,0,1-12.531,9.256L376.225,179a9.711,9.711,0,0,0-4.769,12.832,9.56,9.56,0,0,0,5.449,5l.008,0a9.59,9.59,0,0,0,4.132.541l2.027,4.331a.916.916,0,0,0,1.164.466l2.854,6.1a4.535,4.535,0,0,0,8.215-3.844l-2.853-6.1.824-.386a.918.918,0,0,0,.443-1.221l-1.605-3.43a39.344,39.344,0,0,1,9.743-1.631s6.925-.241,7.5-.335a4.986,4.986,0,0,0,1.188-.381c4.378-1.864,4.756-9.856,1.016-17.847S401.514,160.424,397.2,162.44Zm-14.3,34.574a9.779,9.779,0,0,0,1.365-.518l2.451-1.147c.372-.174.746-.34,1.122-.5l1.384,2.959-4.882,2.285Zm5.848,10.473-2.853-6.1,2.317-1.084,2.853,6.1a2.68,2.68,0,0,1,.092,2.063l0,.006a.7.7,0,0,1-.9.4A2.68,2.68,0,0,1,388.753,207.487Zm4.888-2.287a2.7,2.7,0,0,1-.532,3.043,4.5,4.5,0,0,0-.374-2.618l-2.853-6.1.907-.425Zm-1.976-8.534-.774.362-1.343-2.87c.267-.1.536-.2.805-.3Zm10.116-6.843a41.14,41.14,0,0,0-15.838,3.863l-2.45,1.147a7.736,7.736,0,0,1-5.955.268l-.006,0a7.735,7.735,0,0,1-4.409-4.042A7.871,7.871,0,0,1,377,180.662l2.333-1.092a41.132,41.132,0,0,0,13.113-9.686l1.281-1.414a23.357,23.357,0,0,0,2.458,11.817,24.492,24.492,0,0,0,6.716,8.885q.4.307.788.572Zm-1.952-15.749c0,.049-.007.1-.008.147a8.88,8.88,0,0,0,.908,3.943,8.629,8.629,0,0,0,2.561,3.311l-3.434,1.607a27.956,27.956,0,0,1-3.463-7.4Zm5.777,6.318h0c-.592.272-2.172-.786-3.211-3.007a7.133,7.133,0,0,1-.736-3.1c.023-.668.21-1.164.487-1.293a.778.778,0,0,1,.577.031,2.762,2.762,0,0,1,.728.423A7.131,7.131,0,0,1,405.356,176C406.4,178.221,406.2,180.115,405.605,180.391Zm4.159,8.887a2.351,2.351,0,0,1-.8.243,3.936,3.936,0,0,1-.773.04,7.769,7.769,0,0,1-4.157-1.838,18.163,18.163,0,0,1-3.08-3.126l5.429-2.541h0c1.794-.84,2.067-3.778.636-6.836A8.881,8.881,0,0,0,404.575,172a3.07,3.07,0,0,0-3.211-.668h0l-5.432,2.542a18.2,18.2,0,0,1-.427-4.367,7.762,7.762,0,0,1,1.255-4.375,3.327,3.327,0,0,1,1.223-1.023,4,4,0,0,1,3.1.026c3,1.086,6.5,4.8,8.814,9.743C413.089,180.7,413.028,187.751,409.765,189.278Z" transform="translate(-370.573 -157.252)" fill="#fff"/>
      <path id="Path_23" data-name="Path 23" d="M459.854,197.711l-7.9-2.862a.918.918,0,1,0-.626,1.727l7.9,2.862a.918.918,0,0,0,.626-1.727Z" transform="translate(-405.8 -171.677)" fill="#00b7ff"/>
      <path id="Path_24" data-name="Path 24" d="M448.825,184.667a.917.917,0,0,0,1,.833l10.216-.909a.918.918,0,0,0-.163-1.829l-10.216.909A.918.918,0,0,0,448.825,184.667Z" transform="translate(-404.963 -166.387)" fill="#00b7ff"/>
      <path id="Path_25" data-name="Path 25" d="M445.378,173.037a.919.919,0,0,0,1.255.335l9.289-5.38A.918.918,0,1,0,455,166.4l-9.289,5.379A.919.919,0,0,0,445.378,173.037Z" transform="translate(-403.396 -159.144)" fill="#00b7ff"/>
      <path id="Path_26" data-name="Path 26" d="M440.44,163.319a.931.931,0,0,0,.214.11.919.919,0,0,0,1.065-.338l5.653-8.1a.919.919,0,1,0-1.507-1.051l-5.652,8.1A.918.918,0,0,0,440.44,163.319Z" transform="translate(-401.107 -153.55)" fill="#00b7ff"/>
    </g>
  </g>
</svg>
