<svg xmlns="http://www.w3.org/2000/svg" width="543.399" height="291.637" viewBox="0 0 543.399 291.637">
  <g id="Group_5" data-name="Group 5" transform="translate(-151.874 -153.55)">
    <g id="Group_2" data-name="Group 2" transform="translate(151.874 244.383)">
      <g id="Group_1" data-name="Group 1">
        <path id="Path_1" data-name="Path 1" d="M154.042,327.562a76.957,76.957,0,0,1-2.168-18.7,100.47,100.47,0,0,1,.814-12.47,104.667,104.667,0,0,1,9.082-31.852A44.025,44.025,0,0,1,173.29,250.1q7.319-6.028,13.42-7.658a40.011,40.011,0,0,1,9.759-1.627,26.964,26.964,0,0,1,8.811,1.491q7.725,2.713,12.741,11.657a38.8,38.8,0,0,1,3.726,11.453,75.372,75.372,0,0,1,1.017,12.269q0,9.9-1.558,14.435a9.653,9.653,0,0,1-5.49,6.167,11.778,11.778,0,0,1-5.016,1.489,10.957,10.957,0,0,1-4.88-1.489,8.107,8.107,0,0,1-5.014-5.016q-1.22-3.522-1.222-13.012V277.14q0-4.473-.271-7.049-.406-3.522-1.491-4.676a4.464,4.464,0,0,0-3.389-1.151q-10.032,0-16.943,24.534a63.662,63.662,0,0,0-1.829,11.317q-.477,6.17-.476,9.014a70.336,70.336,0,0,0,1.084,12.334q1.626,8.676,7.049,11.793a7.415,7.415,0,0,0,3.118.677,10.518,10.518,0,0,0,5.014-1.491,43.235,43.235,0,0,0,9.216-7.048q4.881-4.881,9.488-4.881a9.755,9.755,0,0,1,4.609,1.222q6.777,3.795,6.777,10.436a12.438,12.438,0,0,1-.136,1.762q-1.49,5.693-9.623,12.606a51,51,0,0,1-16.536,9.757,33.89,33.89,0,0,1-8.675,1.222,25.706,25.706,0,0,1-9.894-1.9,35.126,35.126,0,0,1-14.3-11.114A46.426,46.426,0,0,1,154.042,327.562Z" transform="translate(-151.874 -184.97)" fill="#00b7ff"/>
        <path id="Path_2" data-name="Path 2" d="M205.786,247.126a15.543,15.543,0,0,1-3.523-3.252,9.175,9.175,0,0,1-1.627-4.066,6.864,6.864,0,0,1-.136-1.356q0-4.47,3.8-9.216,4.2-5.557,9.625-6.913a10.846,10.846,0,0,1,1.762-.136,11.675,11.675,0,0,1,5.016,1.22,9.675,9.675,0,0,1,4.88,4.338,12.067,12.067,0,0,1,1.355,5.422,13.774,13.774,0,0,1-2.847,7.86q-4.064,5.559-7.522,6.641a19.183,19.183,0,0,1-5.219,1.086A10.2,10.2,0,0,1,205.786,247.126ZM203.211,353.8q-1.087-2.3-1.424-10.843t-.474-26.974q-.136-7.859-.136-13.553t.136-9.354q.27-7.453,1.491-10.166a7.022,7.022,0,0,1,4.066-3.8,15.35,15.35,0,0,1,6.507-1.761,8.039,8.039,0,0,1,5.693,2.3q4.473,4.2,4.743,12.334l.543,19.925q0,2.441.136,4.88.27,11.253.541,20.942t.407,12a20.248,20.248,0,0,1,.271,2.982,6.617,6.617,0,0,1-.134,1.491,7,7,0,0,1-1.627,3.118q-4.2,5.015-9.218,5.014a8.44,8.44,0,0,1-2.032-.271Q206.6,360.983,203.211,353.8Z" transform="translate(-118.767 -197.653)" fill="#00b7ff"/>
        <path id="Path_3" data-name="Path 3" d="M303.189,356.467q-6.78-2.032-8.945-11.791-.814-4.609-.814-17.35v-6.777q.134-7.859.136-13.284v-5.422a10.735,10.735,0,0,0-1.424,2.034q-1.291,2.035-3.049,5.016Q279.467,324.75,271.2,332t-16.671,7.251h-.543q-14.369,0-23.45-18.7-7.455-15.993-7.861-37.682v-7.591a9.15,9.15,0,0,1,.745-3.592,11.043,11.043,0,0,1,1.967-2.506,10.617,10.617,0,0,1,7.591-3.525,12.564,12.564,0,0,1,5.15,1.219,11.251,11.251,0,0,1,5.76,5.693q1.694,3.8,1.83,10.979a93.525,93.525,0,0,0,2.913,19.384q2.506,9.76,5.219,11.927a1.189,1.189,0,0,0,.543.134q2.574,0,8.675-8.675,6.775-9.757,17.348-29.413,9.354-17.616,13.827-22.364,3.931-4.2,6.574-4.609a31.083,31.083,0,0,1,3.321-.407q3.792,0,7.725,3.254a13.976,13.976,0,0,1,3.592,4.406,19.953,19.953,0,0,1,1.694,7.182q.409,4.677.407,12v3.8q-.136,10.032-.677,27.109-.275,12.067-.271,19.384v4.337q0,7.594.677,10.166a25.085,25.085,0,0,1,.407,4.338,11.9,11.9,0,0,1-2.847,8.132,10.429,10.429,0,0,1-7.861,3.252A19.461,19.461,0,0,1,303.189,356.467Z" transform="translate(-103.668 -179.04)" fill="#00b7ff"/>
        <path id="Path_4" data-name="Path 4" d="M368.459,402.638a13.394,13.394,0,0,1-2.168-2.1,21.255,21.255,0,0,1-1.762-2.373q-1.626-4.064-3.321-24.058t-2.644-46.56l-.676-20.061-4.473,10.843q-19.111,46.223-36.328,52.32A23.22,23.22,0,0,1,309.5,372a16.647,16.647,0,0,1-9.218-2.711,24.448,24.448,0,0,1-10.1-13.418,56.579,56.579,0,0,1-2.915-17.891,75.526,75.526,0,0,1,.541-8.811q2.441-18.163,9.828-31.719t17.824-18.7a28.025,28.025,0,0,1,8.809-2.51c2.62-.222,4.382-.338,5.286-.338a30.55,30.55,0,0,1,8.813,1.22,13.683,13.683,0,0,0,3.928.948c.723,0,1.086-.225,1.086-.677q1.9-5.827,4.743-16.6t5.49-21.552q2.645-10.776,3.728-16.333a40.59,40.59,0,0,1,1.151-5.286q.744-2.574,1.289-3.932,2.166-4.334,5.217-5.217a18.318,18.318,0,0,1,4.678-.881,12.236,12.236,0,0,1,5.014,1.084,9.821,9.821,0,0,1,5.693,6.234q.676,1.629.745,7.32t.069,9.623q0,7.861-.136,20.332-.136,9.22-.136,18.3,0,33.341,1.22,65.468,1.49,40.8,4.066,51.37a17.23,17.23,0,0,1,.679,4.609,13.454,13.454,0,0,1-4.068,9.623,11.124,11.124,0,0,1-3.389,2.508,11.472,11.472,0,0,1-4.2.612A10.623,10.623,0,0,1,368.459,402.638ZM320.071,335q3.116-5.418,6.37-12.537t5.286-12.606q2.032-5.486,2.032-7.251V302.2q-.678-2.441-2.236-2.78a12.353,12.353,0,0,0-2.237-.34,10.887,10.887,0,0,0-4.337,1.086q-4.067,2.307-7.727,9.894a67.138,67.138,0,0,0-5.286,15.318,65.065,65.065,0,0,0-1.625,13.012,41.236,41.236,0,0,0,.271,4.879l.814,4.066,2.3-2.846a35.4,35.4,0,0,0,2.847-3.932Q318.306,337.85,320.071,335Z" transform="translate(-59.689 -207.59)" fill="#00b7ff"/>
        <path id="Path_5" data-name="Path 5" d="M352.991,324.951V322.1a77.2,77.2,0,0,1,1.9-16.809,114.681,114.681,0,0,1,11.317-29.481q7.249-12.808,16.333-20.2t18.434-7.387h.543a23.727,23.727,0,0,1,14.1,4.337,8.286,8.286,0,0,0,2.98,1.289,15.1,15.1,0,0,0,3.661.474q8.809.136,12.334,8a21.309,21.309,0,0,1,1.7,4.947,69.928,69.928,0,0,1,1.082,8.2q.474,5.423,1.153,15.452a173.765,173.765,0,0,0,2.3,20.2q1.354,6.78,3.8,9.759a12.364,12.364,0,0,1,3.253,7.863,11.373,11.373,0,0,1-1.627,5.691q-3.253,6.238-6.641,6.777a37.483,37.483,0,0,1-4.338.543,12.444,12.444,0,0,1-8.945-4.066q-2.713-3.119-5.152-10.235a92.575,92.575,0,0,1-3.794-15.926q-.409-3.252-.883-6.37t-.745-4.473l-.407-3.252-5.693,8.809q-19.386,30.228-31.987,36.191a19.165,19.165,0,0,1-7.863,1.9,13.2,13.2,0,0,1-4.2-.677,16.552,16.552,0,0,1-8.809-6.846A23.469,23.469,0,0,1,352.991,324.951Zm32.393-24.263q7.592-11.114,12.539-19.111t4.948-8.946c0-.272-.183-.5-.545-.679a3.02,3.02,0,0,0-1.355-.271q-2.3.136-6.234,4a45.73,45.73,0,0,0-7.05,9.014,73.357,73.357,0,0,0-3.658,7.182Q382,296.35,380.3,300.959t-2.441,7.184a16,16,0,0,0-.746,3.389c0,.361.089.543.272.543a29.969,29.969,0,0,0,2.441-3.254Q382.131,305.568,385.384,300.688Z" transform="translate(-14.942 -179.919)" fill="#00b7ff"/>
        <path id="Path_6" data-name="Path 6" d="M497.082,402.638a13.262,13.262,0,0,1-2.168-2.1,21.083,21.083,0,0,1-1.763-2.373q-1.626-4.064-3.32-24.058t-2.644-46.56l-.677-20.061-4.473,10.843q-19.111,46.223-36.325,52.32A23.246,23.246,0,0,1,438.119,372a16.645,16.645,0,0,1-9.216-2.711,24.459,24.459,0,0,1-10.1-13.418,56.579,56.579,0,0,1-2.915-17.891,75.54,75.54,0,0,1,.543-8.811q2.438-18.163,9.826-31.719t17.826-18.7a28.012,28.012,0,0,1,8.809-2.51c2.62-.222,4.382-.338,5.286-.338a30.547,30.547,0,0,1,8.811,1.22,13.686,13.686,0,0,0,3.932.948q1.082,0,1.082-.677,1.9-5.827,4.743-16.6t5.491-21.552q2.642-10.776,3.728-16.333a40.586,40.586,0,0,1,1.15-5.286q.744-2.574,1.289-3.932,2.166-4.334,5.217-5.217a18.329,18.329,0,0,1,4.678-.881,12.235,12.235,0,0,1,5.014,1.084,9.817,9.817,0,0,1,5.693,6.234q.676,1.629.746,7.32t.067,9.623q0,7.861-.136,20.332-.136,9.22-.134,18.3,0,33.341,1.22,65.468,1.488,40.8,4.066,51.37a17.3,17.3,0,0,1,.677,4.609,13.458,13.458,0,0,1-4.066,9.623,11.148,11.148,0,0,1-3.39,2.508,11.472,11.472,0,0,1-4.2.612A10.621,10.621,0,0,1,497.082,402.638ZM448.692,335q3.116-5.418,6.37-12.537t5.288-12.606q2.032-5.486,2.031-7.251V302.2q-.678-2.441-2.236-2.78a12.353,12.353,0,0,0-2.237-.34,10.893,10.893,0,0,0-4.337,1.086q-4.067,2.307-7.725,9.894a66.974,66.974,0,0,0-5.286,15.318,65.083,65.083,0,0,0-1.627,13.012,41.6,41.6,0,0,0,.271,4.879l.814,4.066,2.3-2.846a35.2,35.2,0,0,0,2.846-3.932Q446.929,337.85,448.692,335Z" transform="translate(27.883 -207.59)" fill="#00b7ff"/>
      </g>
    </g>
    <g id="Group_3" data-name="Group 3" transform="translate(304.75 422.216)">
      <path id="Path_7" data-name="Path 7" d="M261.01,331.374a9.35,9.35,0,0,1-2.857,1.676,9.6,9.6,0,0,1-3.358.6,9.437,9.437,0,0,1-4.658-1.19,9.181,9.181,0,0,1-3.387-3.216,8.244,8.244,0,0,1,0-8.7,9.19,9.19,0,0,1,3.387-3.219,9.47,9.47,0,0,1,4.658-1.187,9.9,9.9,0,0,1,3.4.583,8.866,8.866,0,0,1,2.39,1.3l2.071-.012-.329-1.982a12.487,12.487,0,0,0-3.219-1.787,12.408,12.408,0,0,0-10.28.756,11.788,11.788,0,0,0-4.369,4.155,10.885,10.885,0,0,0,0,11.463,12.138,12.138,0,0,0,10.337,5.7,12.287,12.287,0,0,0,4.323-.771,12.106,12.106,0,0,0,3.7-2.188l.9-.782-2-1.8Z" transform="translate(-242.825 -313.338)" fill="#2b5ac4"/>
      <path id="Path_8" data-name="Path 8" d="M267.754,313.535l-10.729,22.636h3.063l2.948-6.256H274.6l2.982,6.256h3.037l-10.863-22.636ZM264.3,327.222l4.461-9.5,4.528,9.5Z" transform="translate(-233.157 -313.29)" fill="#2b5ac4"/>
      <path id="Path_9" data-name="Path 9" d="M285.856,329.389l-8.647-15.855h-2.742v22.638h2.714v-16.9l7.992,14.638h1.312l7.967-14.638.026,16.9h2.713V313.534h-2.744Z" transform="translate(-221.281 -313.29)" fill="#2b5ac4"/>
      <path id="Path_10" data-name="Path 10" d="M308.924,324.253a5.369,5.369,0,0,0,.746-.7,5.7,5.7,0,0,0,1.356-3.881,5.517,5.517,0,0,0-2.106-4.574h0a8.608,8.608,0,0,0-5.424-1.562h-9.6v22.638h9.6a10.494,10.494,0,0,0,6.226-1.637,6.2,6.2,0,0,0,.713-9.2,6.2,6.2,0,0,0-1.511-1.081m-12.312-8.024H303.5a6.044,6.044,0,0,1,3.693.958,2.877,2.877,0,0,1,1.123,2.483,2.91,2.91,0,0,1-1.123,2.513,6.041,6.041,0,0,1-3.693.956h-6.885Zm11.463,16.15h0a7.981,7.981,0,0,1-4.579,1.1h-6.885V325.8H303.5a8.153,8.153,0,0,1,4.589,1.077,3.036,3.036,0,0,1,1.382,2.715,3.134,3.134,0,0,1-1.392,2.782" transform="translate(-208.052 -313.29)" fill="#2b5ac4"/>
      <path id="Path_11" data-name="Path 11" d="M325.412,313.535l-10.729,22.636h3.063l2.948-6.256h11.563l2.98,6.256h3.037L327.41,313.535Zm-3.454,13.687,4.461-9.5,4.53,9.5Z" transform="translate(-193.9 -313.29)" fill="#2b5ac4"/>
      <path id="Path_12" data-name="Path 12" d="M372.13,330.856a10.925,10.925,0,0,1-3.474,2.194,9.6,9.6,0,0,1-3.358.6,9.458,9.458,0,0,1-4.658-1.188,9.177,9.177,0,0,1-3.387-3.219,8.241,8.241,0,0,1,0-8.7,9.174,9.174,0,0,1,3.387-3.217,9.44,9.44,0,0,1,4.658-1.188,9.889,9.889,0,0,1,3.4.583,10.662,10.662,0,0,1,2.553,1.434,1.306,1.306,0,0,0,1.686-.106l.029-.027a1.308,1.308,0,0,0-.121-1.994,14.683,14.683,0,0,0-3.234-1.782,12.4,12.4,0,0,0-10.28.755,11.779,11.779,0,0,0-4.369,4.157,10.873,10.873,0,0,0,0,11.462,12.138,12.138,0,0,0,10.337,5.7,12.294,12.294,0,0,0,4.323-.771,13.649,13.649,0,0,0,4.4-2.767c-.042-.1-1.535-1.533-1.893-1.915" transform="translate(-167.59 -313.338)" fill="#2b5ac4"/>
      <path id="Path_13" data-name="Path 13" d="M386.193,314.993h0a12.429,12.429,0,0,0-11.941,0,11.811,11.811,0,0,0-4.367,4.14,10.87,10.87,0,0,0,0,11.46,11.906,11.906,0,0,0,4.364,4.17,12.326,12.326,0,0,0,11.949,0,11.91,11.91,0,0,0,4.365-4.17,10.87,10.87,0,0,0,0-11.46,11.836,11.836,0,0,0-4.367-4.14m2.044,14.215a9.186,9.186,0,0,1-3.387,3.217,9.6,9.6,0,0,1-9.253,0,9.165,9.165,0,0,1-3.389-3.217,8.046,8.046,0,0,1-1.242-4.352,7.93,7.93,0,0,1,1.24-4.3,9.2,9.2,0,0,1,3.39-3.2,9.588,9.588,0,0,1,9.253,0,9.209,9.209,0,0,1,3.389,3.2,7.936,7.936,0,0,1,1.239,4.3,8.052,8.052,0,0,1-1.24,4.352" transform="translate(-157.427 -313.337)" fill="#2b5ac4"/>
      <path id="Path_14" data-name="Path 14" d="M404.562,313.535h-.608a1.053,1.053,0,0,0-1.054,1.052v16.79l-13.1-17.424a1.058,1.058,0,0,0-.842-.419h-.913A1.053,1.053,0,0,0,387,314.587v20.532a1.053,1.053,0,0,0,1.054,1.052h.608a1.052,1.052,0,0,0,1.052-1.052v-16.79l13.1,17.422a1.052,1.052,0,0,0,.842.42h.913a1.052,1.052,0,0,0,1.052-1.052V314.587a1.052,1.052,0,0,0-1.052-1.052" transform="translate(-144.666 -313.29)" fill="#2b5ac4"/>
      <path id="Path_15" data-name="Path 15" d="M418.162,313.535H402.955a1.053,1.053,0,0,0-1.052,1.052v.588a1.054,1.054,0,0,0,1.052,1.052H409.2v18.891a1.053,1.053,0,0,0,1.054,1.052h.608a1.053,1.053,0,0,0,1.052-1.052V316.228h6.246a1.053,1.053,0,0,0,1.052-1.052v-.588a1.052,1.052,0,0,0-1.052-1.052" transform="translate(-134.516 -313.29)" fill="#2b5ac4"/>
      <path id="Path_16" data-name="Path 16" d="M441.446,324.038h-.608a1.053,1.053,0,0,0-1.052,1.054v6.717a9.043,9.043,0,0,1-2.4,1.279,9.689,9.689,0,0,1-3.266.556,9.42,9.42,0,0,1-8.045-4.436,8.216,8.216,0,0,1,0-8.685,9.245,9.245,0,0,1,3.389-3.207,9.475,9.475,0,0,1,4.658-1.187,9.889,9.889,0,0,1,3.4.583,8.777,8.777,0,0,1,2.81,1.651,1.052,1.052,0,0,0,1.427-.034l.395-.382a1.054,1.054,0,0,0-.05-1.562,12.484,12.484,0,0,0-3.669-2.15,12.409,12.409,0,0,0-10.28.756,11.824,11.824,0,0,0-4.367,4.14,10.879,10.879,0,0,0,0,11.46,11.906,11.906,0,0,0,4.363,4.17,12.052,12.052,0,0,0,5.976,1.545,12.326,12.326,0,0,0,4.323-.771,12.108,12.108,0,0,0,3.7-2.188,1.055,1.055,0,0,0,.363-.8v-7.461a1.055,1.055,0,0,0-1.054-1.054" transform="translate(-120.732 -313.338)" fill="#2b5ac4"/>
      <path id="Path_17" data-name="Path 17" d="M460.738,319.133a11.849,11.849,0,0,0-4.367-4.14,12.429,12.429,0,0,0-11.941,0,11.823,11.823,0,0,0-4.367,4.14,10.87,10.87,0,0,0,0,11.46,11.906,11.906,0,0,0,4.364,4.17,12.326,12.326,0,0,0,11.949,0,11.91,11.91,0,0,0,4.365-4.17,10.879,10.879,0,0,0,0-11.46m-2.323,10.075a9.177,9.177,0,0,1-3.389,3.217,9.6,9.6,0,0,1-9.253,0,9.16,9.16,0,0,1-3.387-3.217,8.045,8.045,0,0,1-1.242-4.352,7.915,7.915,0,0,1,1.24-4.3,9.21,9.21,0,0,1,3.389-3.2,9.588,9.588,0,0,1,9.253,0,9.214,9.214,0,0,1,3.39,3.2,7.936,7.936,0,0,1,1.239,4.3,8.052,8.052,0,0,1-1.24,4.352" transform="translate(-109.646 -313.337)" fill="#2b5ac4"/>
      <path id="Path_18" data-name="Path 18" d="M417.409,316.234h-.037a1.34,1.34,0,0,0-1.34,1.338v15.435a1.339,1.339,0,0,0,1.34,1.338h.037a1.337,1.337,0,0,0,1.338-1.338V317.572a1.338,1.338,0,0,0-1.338-1.338" transform="translate(-124.896 -311.452)" fill="#2b5ac4"/>
      <path id="Path_19" data-name="Path 19" d="M417.486,313.389a1.583,1.583,0,1,0,1.582,1.583,1.584,1.584,0,0,0-1.582-1.583" transform="translate(-124.984 -313.389)" fill="#2b5ac4"/>
      <path id="Path_20" data-name="Path 20" d="M311.089,316.234h-.037a1.339,1.339,0,0,0-1.338,1.338v15.435a1.338,1.338,0,0,0,1.338,1.338h.037a1.339,1.339,0,0,0,1.34-1.338V317.572a1.34,1.34,0,0,0-1.34-1.338" transform="translate(-197.283 -311.452)" fill="#2b5ac4"/>
      <path id="Path_21" data-name="Path 21" d="M311.167,313.389a1.583,1.583,0,1,0,1.582,1.583,1.582,1.582,0,0,0-1.582-1.583" transform="translate(-197.371 -313.389)" fill="#2b5ac4"/>
    </g>
    <text id="La" transform="translate(271.722 306.416)" fill="#2b5ac4" font-size="91" font-family="Quicksand-Light, Quicksand" font-weight="300"><tspan x="0" y="0">La</tspan></text>
    <g id="Group_4" data-name="Group 4" transform="translate(519.475 153.55)">
      <path id="Path_22" data-name="Path 22" d="M450.439,163.375a14.782,14.782,0,0,0-3.666,2.447C446.034,166.492,432.1,182,432.1,182a117.85,117.85,0,0,1-37.579,27.758l-7,3.274a29.124,29.124,0,0,0-14.3,38.482,28.671,28.671,0,0,0,16.34,14.98l.024.008a28.76,28.76,0,0,0,12.391,1.624l6.08,12.988a2.747,2.747,0,0,0,3.491,1.4L420.1,300.8a13.6,13.6,0,0,0,24.635-11.529l-8.556-18.281,2.471-1.156a2.753,2.753,0,0,0,1.328-3.661l-4.814-10.285A117.988,117.988,0,0,1,464.387,251s20.769-.723,22.492-1.005a14.953,14.953,0,0,0,3.562-1.143c13.129-5.589,14.262-29.558,3.047-53.522S463.363,157.327,450.439,163.375ZM407.557,267.059a29.333,29.333,0,0,0,4.093-1.553L419,262.067c1.114-.523,2.237-1.019,3.365-1.506l4.152,8.873-14.64,6.851Zm17.536,31.407-8.556-18.281,6.949-3.251,8.556,18.281a8.037,8.037,0,0,1,.277,6.186l-.007.018a2.085,2.085,0,0,1-2.7,1.193A8.036,8.036,0,0,1,425.094,298.466Zm14.657-6.86a8.1,8.1,0,0,1-1.6,9.127,13.5,13.5,0,0,0-1.123-7.851L428.474,274.6l2.721-1.274Zm-5.925-25.593L431.5,267.1l-4.027-8.606c.8-.3,1.607-.6,2.415-.886Zm30.336-20.522a123.373,123.373,0,0,0-47.5,11.586l-7.347,3.439a23.2,23.2,0,0,1-17.859.805l-.018-.007a23.2,23.2,0,0,1-13.223-12.122,23.6,23.6,0,0,1,11.64-31.172l7-3.274A123.349,123.349,0,0,0,436.179,185.7l3.842-4.241c-1.03,9.952,1.377,22.629,7.37,35.439,5.212,11.136,12.364,20.6,20.14,26.645q1.185.92,2.362,1.714Zm-5.854-47.23c-.008.148-.02.292-.025.442a26.631,26.631,0,0,0,2.723,11.825,25.876,25.876,0,0,0,7.68,9.931l-10.3,4.819A83.834,83.834,0,0,1,448,203.084Zm17.325,18.947h0l-.008,0c-1.775.815-6.513-2.357-9.63-9.018a21.39,21.39,0,0,1-2.207-9.3c.069-2,.629-3.489,1.461-3.878a2.333,2.333,0,0,1,1.731.094,8.283,8.283,0,0,1,2.182,1.269,21.384,21.384,0,0,1,5.725,7.651C478.007,210.7,477.4,216.379,475.632,217.208Zm12.474,26.652a7.047,7.047,0,0,1-2.405.729,11.8,11.8,0,0,1-2.32.119c-3.713-.188-8.038-2.071-12.467-5.513a54.467,54.467,0,0,1-9.238-9.376l16.281-7.619.01,0c5.379-2.518,6.2-11.331,1.908-20.5a26.632,26.632,0,0,0-7.334-9.665c-3.37-2.62-6.791-3.333-9.628-2h0l0,0L446.62,197.65a54.586,54.586,0,0,1-1.279-13.1c.2-5.616,1.525-10.149,3.765-13.119A10.978,10.978,0,0,1,450.5,169.9a11.09,11.09,0,0,1,2.274-1.531c2.693-1.261,5.881-1.158,9.292.077,8.984,3.256,19.491,14.386,26.433,29.218C498.075,218.122,497.893,239.279,488.106,243.86Z" transform="translate(-370.573 -147.816)" fill="#2b5ac4"/>
      <path id="Path_23" data-name="Path 23" d="M478.1,203.541l-23.682-8.582a2.754,2.754,0,0,0-1.878,5.179l23.683,8.582a2.754,2.754,0,0,0,1.876-5.179Z" transform="translate(-316 -125.469)" fill="#00b7ff"/>
      <path id="Path_24" data-name="Path 24" d="M448.832,188.481a2.751,2.751,0,0,0,2.987,2.5l30.635-2.725a2.754,2.754,0,0,0-.489-5.486l-30.635,2.725A2.753,2.753,0,0,0,448.832,188.481Z" transform="translate(-317.296 -133.663)" fill="#00b7ff"/>
      <path id="Path_25" data-name="Path 25" d="M445.625,186.545a2.755,2.755,0,0,0,3.763,1l27.855-16.133a2.753,2.753,0,1,0-2.76-4.765l-27.855,16.131A2.755,2.755,0,0,0,445.625,186.545Z" transform="translate(-319.725 -144.884)" fill="#00b7ff"/>
      <path id="Path_26" data-name="Path 26" d="M441.225,182.846a2.793,2.793,0,0,0,.64.331,2.755,2.755,0,0,0,3.2-1.014l16.951-24.282a2.755,2.755,0,1,0-4.518-3.153l-16.95,24.282A2.754,2.754,0,0,0,441.225,182.846Z" transform="translate(-323.27 -153.55)" fill="#00b7ff"/>
    </g>
  </g>
</svg>
