<svg xmlns="http://www.w3.org/2000/svg" width="79.453" height="64.517" viewBox="0 0 79.453 64.517">
  <g id="Group_34" data-name="Group 34" transform="translate(-1367 -1686.562)">
    <path id="Path_15" data-name="Path 15" d="M12.756,9h42.5a9.778,9.778,0,0,1,10.036,9.474V47.051a9.778,9.778,0,0,1-10.036,9.474H14.036A9.778,9.778,0,0,1,4,47.051V18.3a2.13,2.13,0,0,1,2.189-2.066A2.13,2.13,0,0,1,8.378,18.3V47.051a5.517,5.517,0,0,0,5.658,5.341H55.253a5.517,5.517,0,0,0,5.658-5.341V18.474a5.517,5.517,0,0,0-5.658-5.341h-42.5a2.13,2.13,0,0,1-2.189-2.066A2.13,2.13,0,0,1,12.756,9Z" transform="translate(1381.164 1677.562)" fill="#27d888"/>
    <path id="Path_14" data-name="Path 14" d="M56.534,56.525h-42.5A9.778,9.778,0,0,1,4,47.051V18.474A9.778,9.778,0,0,1,14.036,9H55.253a9.778,9.778,0,0,1,10.036,9.474V47.226a2.193,2.193,0,0,1-4.378,0V18.474a5.517,5.517,0,0,0-5.658-5.341H14.036a5.517,5.517,0,0,0-5.658,5.341V47.051a5.517,5.517,0,0,0,5.658,5.341h42.5a2.07,2.07,0,1,1,0,4.133Z" transform="translate(1363 1694.553)" fill="#14bbf2"/>
  </g>
</svg>
