<svg xmlns="http://www.w3.org/2000/svg" width="89.392" height="89.345" viewBox="0 0 89.392 89.345">
  <g id="Group_37" data-name="Group 37" transform="translate(0.006 -0.003)">
    <path id="Path_29" data-name="Path 29" d="M32.369,50.478a2.262,2.262,0,0,1-2.262-2.262V27a.754.754,0,0,0-.754-.754H17.235a.754.754,0,0,0-.754.754V48.188a2.276,2.276,0,0,1-4.551,0V27a5.305,5.305,0,0,1,5.305-5.305H29.354A5.305,5.305,0,0,1,34.659,27V48.188a2.262,2.262,0,0,1-2.29,2.29Z" transform="translate(21.392 38.869)" fill="#27d888"/>
    <path id="Path_30" data-name="Path 30" d="M65.879,89.347H23.493a14.408,14.408,0,0,1-14.38-14.38v-30.3a2.276,2.276,0,1,1,4.551,0v30.3a9.857,9.857,0,0,0,9.857,9.857H65.879a9.857,9.857,0,0,0,9.857-9.857v-30.3a2.276,2.276,0,1,1,4.551,0v30.3a14.408,14.408,0,0,1-14.408,14.38ZM87.1,40.874a2.262,2.262,0,0,1-1.48-.558L44.686,5.273,3.752,40.343a2.278,2.278,0,1,1-2.96-3.462L43.206.554a2.262,2.262,0,0,1,2.96,0l42.414,36.3a2.262,2.262,0,0,1-1.48,3.993Z" transform="translate(0 0)" fill="#14bbf2"/>
  </g>
</svg>
