<svg xmlns="http://www.w3.org/2000/svg" width="58.445" height="58.445" viewBox="0 0 58.445 58.445">
  <path id="Path_31" data-name="Path 31" d="M.714,54.373l10.045-9.821h0l.235-.358a2.366,2.366,0,0,1,3.322,0h0a23.707,23.707,0,0,0,30.739.995,22.44,22.44,0,0,0,4.986-29.671A23.6,23.6,0,0,0,20.594,6.844,22.623,22.623,0,0,0,7.987,34.271a2.276,2.276,0,0,1-.531,2.255,2.4,2.4,0,0,1-2.263.678,2.346,2.346,0,0,1-1.732-1.577h0A27.277,27.277,0,0,1,18.071,2.75a28.5,28.5,0,0,1,35.438,9.189,27.048,27.048,0,0,1-3.974,35.634A28.606,28.606,0,0,1,12.9,49.079l-8.894,8.7a2.393,2.393,0,0,1-3.322,0,2.291,2.291,0,0,1,0-3.274h0Z" fill="#fff"/>
</svg>
