<svg xmlns="http://www.w3.org/2000/svg" width="68.2" height="65" viewBox="0 0 68.2 65">
  <g id="Group_33" data-name="Group 33" transform="translate(-16.4 -18)">
    <path id="Path_10" data-name="Path 10" d="M50.4,54.5A18.25,18.25,0,1,0,32.2,36.2,18.2,18.2,0,0,0,50.4,54.5Zm0-31.7A13.4,13.4,0,1,1,37,36.3,13.4,13.4,0,0,1,50.4,22.8Z" fill="#27d888"/>
    <path id="Path_11" data-name="Path 11" d="M18.8,83H82.2a2.433,2.433,0,0,0,2.4-2.4A22.961,22.961,0,0,0,61.7,57.7H39.3A22.961,22.961,0,0,0,16.4,80.6,2.433,2.433,0,0,0,18.8,83ZM39.3,62.5H61.7A18.035,18.035,0,0,1,79.6,78.2H21.4A18.035,18.035,0,0,1,39.3,62.5Z" fill="#14bbf2"/>
  </g>
</svg>
