<svg xmlns="http://www.w3.org/2000/svg" width="76.221" height="76.216" viewBox="0 0 76.221 76.216">
  <g id="Group_31" data-name="Group 31" transform="translate(0.004)">
    <path id="Path_4" data-name="Path 4" d="M26.112,38.123a17.432,17.432,0,1,1,0-34.863A17.622,17.622,0,0,1,43.543,20.692,17.527,17.527,0,0,1,29.636,37.766h-.214a16.289,16.289,0,0,1-3.31.357Zm0-30.958a13.562,13.562,0,1,0,0,27.124,12.288,12.288,0,0,0,2.643-.262h.214A13.574,13.574,0,0,0,26.112,7.118Z" transform="translate(11.995 4.503)" fill="#27d78c"/>
    <path id="Path_5" data-name="Path 5" d="M38.107,0A38.1,38.1,0,0,0,5.1,57.153a1.936,1.936,0,0,0,3.358-1.929,34.22,34.22,0,1,1,59.3,0,1.936,1.936,0,0,0,3.358,1.929A38.1,38.1,0,0,0,38.107,0Z" transform="translate(0 0)" fill="#fff"/>
    <path id="Path_6" data-name="Path 6" d="M58.8,36.89a1.858,1.858,0,0,0,0-.4A22.6,22.6,0,0,0,36.916,19.53H26.557A22.6,22.6,0,0,0,4.672,36.487a2.238,2.238,0,0,0,.524,2,38.1,38.1,0,0,0,53.057,0,1.953,1.953,0,0,0,.548-1.6ZM8.792,36.461a18.67,18.67,0,0,1,17.789-13.05H36.916A18.67,18.67,0,0,1,54.7,36.461a34.053,34.053,0,0,1-45.913,0Z" transform="translate(6.382 26.978)" fill="#fff"/>
  </g>
</svg>
