<svg xmlns="http://www.w3.org/2000/svg" width="237.016" height="237" viewBox="0 0 237.016 237">
  <g id="Group_29" data-name="Group 29" transform="translate(0.004)">
    <path id="Path_4" data-name="Path 4" d="M62.885,111.67a54.2,54.2,0,1,1,0-108.41,54.8,54.8,0,0,1,54.2,54.2,54.5,54.5,0,0,1-43.245,53.094h-.666a50.65,50.65,0,0,1-10.293,1.111Zm0-96.266a42.172,42.172,0,1,0,0,84.343,38.21,38.21,0,0,0,8.22-.815h.666a42.209,42.209,0,0,0-8.886-83.677Z" transform="translate(55.62 20.88)" fill="#27d78c"/>
    <path id="Path_5" data-name="Path 5" d="M118.505,0A118.481,118.481,0,0,0,15.871,177.721a6.021,6.021,0,0,0,10.441-6,106.41,106.41,0,1,1,184.386,0,6.021,6.021,0,0,0,10.441,6A118.481,118.481,0,0,0,118.505,0Z" transform="translate(0 0)" fill="#2b5ac4"/>
    <path id="Path_6" data-name="Path 6" d="M173.107,73.513a5.776,5.776,0,0,0,0-1.259A70.274,70.274,0,0,0,105.055,19.53H72.843A70.275,70.275,0,0,0,4.789,72.259a6.961,6.961,0,0,0,1.63,6.215,118.481,118.481,0,0,0,164.984,0,6.072,6.072,0,0,0,1.7-4.961ZM17.6,72.18A58.056,58.056,0,0,1,72.917,31.6h32.138a58.056,58.056,0,0,1,55.316,40.58,105.892,105.892,0,0,1-142.769,0Z" transform="translate(29.593 125.091)" fill="#2b5ac4"/>
  </g>
</svg>
