<svg xmlns="http://www.w3.org/2000/svg" width="78.542" height="64.517" viewBox="0 0 78.542 64.517">
  <g id="Group_32" data-name="Group 32" transform="translate(-4 -9)">
    <path id="Path_7" data-name="Path 7" d="M71.322,73.517H16.861A12.875,12.875,0,0,1,4,60.655V21.861A12.875,12.875,0,0,1,16.861,9H69.681A12.875,12.875,0,0,1,82.542,21.861V60.894a2.805,2.805,0,0,1-5.61,0V21.861a7.265,7.265,0,0,0-7.251-7.251H16.861A7.265,7.265,0,0,0,9.61,21.861V60.655a7.265,7.265,0,0,0,7.251,7.251h54.46a2.805,2.805,0,1,1,0,5.61Z" fill="#14bbf2"/>
    <path id="Path_8" data-name="Path 8" d="M29.017,52.3a6.073,6.073,0,0,1-2.959-.785A5.933,5.933,0,0,1,23,46.343V26.778a6.017,6.017,0,0,1,9.116-5.161l16.255,9.818a6.031,6.031,0,0,1,0,10.323L32.116,51.575a5.933,5.933,0,0,1-3.1.729Zm0-25.947a.379.379,0,0,0-.2,0,.393.393,0,0,0-.21.365V46.343a.407.407,0,0,0,.617.351l16.255-9.818a.407.407,0,0,0,0-.7L29.227,26.427a.3.3,0,0,0-.21-.07Z" transform="translate(7.648 4.733)" fill="#27d888"/>
  </g>
</svg>
